<?xml version="1.0" standalone="no"?>
<!DOCTYPE svg PUBLIC "-//W3C//DTD SVG 20010904//EN"
 "http://www.w3.org/TR/2001/REC-SVG-20010904/DTD/svg10.dtd">
<svg version="1.0" xmlns="http://www.w3.org/2000/svg"
 width="1024.000000pt" height="1024.000000pt" viewBox="0 0 1024.000000 1024.000000"
 preserveAspectRatio="xMidYMid meet">

<g transform="translate(0.000000,1024.000000) scale(0.100000,-0.100000)"
fill="#000000" stroke="none">
<path d="M1111 8402 c-388 -353 -801 -745 -801 -759 0 -16 123 -56 255 -83 22
-5 112 -28 200 -50 88 -23 180 -46 205 -50 25 -4 56 -13 70 -19 14 -6 50 -15
80 -20 30 -5 69 -14 85 -19 17 -6 53 -15 80 -20 60 -12 519 -126 591 -147 28
-8 62 -15 75 -15 13 -1 35 -7 49 -15 14 -8 39 -14 57 -15 18 0 55 -9 83 -20
28 -11 63 -20 77 -20 14 0 49 -7 77 -15 68 -20 525 -134 601 -149 33 -7 70
-18 82 -24 12 -7 38 -12 57 -12 19 0 58 -9 86 -20 28 -11 62 -20 77 -20 14 0
46 -7 72 -15 45 -15 250 -65 406 -100 110 -25 228 -63 237 -78 4 -7 8 -692 8
-1524 l0 -1512 43 -34 c40 -33 150 -106 597 -399 358 -235 378 -246 381 -215
4 31 5 272 13 2318 l9 2176 -24 16 c-14 9 -57 23 -97 32 -40 8 -81 19 -90 24
-9 5 -41 12 -71 16 -30 4 -69 14 -87 21 -18 8 -47 14 -64 14 -17 0 -43 6 -58
14 -15 7 -49 17 -77 21 -27 4 -62 13 -77 21 -15 8 -40 14 -56 14 -16 0 -48 6
-73 14 -24 8 -107 28 -184 46 -77 17 -169 40 -205 50 -36 10 -84 21 -107 25
-24 4 -45 11 -48 15 -3 5 -27 12 -53 15 -26 4 -64 13 -85 21 -20 8 -51 14 -68
14 -16 0 -46 7 -67 16 -20 9 -62 20 -92 24 -55 9 -91 17 -210 51 -87 25 -229
58 -316 73 -38 7 -76 16 -84 21 -7 4 -38 14 -69 21 -87 20 -142 34 -191 49
-25 7 -63 17 -85 20 -22 4 -56 12 -75 17 -19 6 -64 17 -100 24 -63 12 -173 39
-275 68 -77 22 -175 46 -230 56 -27 5 -68 16 -90 24 -22 8 -55 15 -73 16 -18
0 -45 6 -60 14 -15 7 -49 17 -77 21 -27 4 -62 13 -77 21 -52 27 -78 18 -157
-54z"/>
<path d="M8980 8450 c-57 -19 -103 -32 -205 -55 -61 -14 -105 -25 -185 -45
-25 -6 -65 -16 -90 -21 -25 -6 -67 -17 -95 -24 -126 -35 -343 -87 -455 -110
-36 -7 -78 -18 -95 -24 -16 -5 -52 -15 -80 -21 -128 -29 -163 -38 -181 -47
-10 -6 -39 -13 -64 -17 -62 -9 -256 -54 -305 -71 -22 -8 -66 -18 -98 -24 -31
-6 -66 -15 -76 -21 -11 -5 -34 -10 -51 -10 -17 0 -56 -9 -87 -20 -32 -11 -70
-20 -86 -20 -15 0 -36 -4 -46 -10 -17 -8 -41 -15 -196 -50 -27 -6 -79 -20
-115 -30 -36 -10 -128 -33 -205 -50 -77 -18 -160 -38 -184 -46 -25 -8 -58 -14
-73 -14 -16 0 -38 -5 -49 -11 -11 -5 -48 -16 -82 -24 -34 -7 -75 -18 -92 -24
-16 -5 -55 -15 -85 -21 -88 -18 -209 -47 -333 -81 -27 -7 -41 -18 -49 -37 -7
-19 -8 -323 -4 -1012 3 -542 6 -1547 6 -2233 0 -1099 2 -1248 15 -1253 19 -8
-1 -20 595 371 107 70 220 144 250 164 30 20 81 55 113 79 l57 43 1 1477 c0
812 4 1499 7 1526 l7 49 70 22 c39 12 106 30 150 40 103 22 345 82 410 100 28
8 68 17 90 20 21 4 52 13 67 21 15 8 41 14 58 14 17 0 65 9 108 21 42 11 104
28 137 36 33 8 80 21 105 28 25 6 117 29 205 50 88 20 174 41 190 47 17 6 53
14 80 18 28 4 67 15 89 24 21 9 51 16 67 16 16 0 46 7 66 15 21 8 61 18 88 24
85 16 475 115 563 142 34 10 78 19 98 19 19 0 49 7 65 16 17 8 53 18 82 21 29
3 60 10 69 14 9 5 45 15 80 23 35 8 106 26 158 40 52 13 163 41 245 61 185 45
245 64 245 77 0 12 -267 272 -450 438 -63 58 -183 169 -267 248 -107 99 -160
142 -176 141 -12 0 -47 -9 -77 -19z"/>
<path d="M1243 6818 c-32 -23 -170 -147 -319 -287 -44 -42 -180 -170 -302
-285 -122 -115 -222 -217 -222 -226 0 -20 60 -46 130 -56 25 -4 54 -11 65 -17
11 -6 49 -16 85 -23 55 -10 250 -58 430 -105 25 -6 70 -17 100 -25 30 -7 74
-18 98 -23 23 -6 61 -16 85 -22 23 -5 69 -16 102 -23 33 -8 74 -19 90 -24 17
-6 129 -34 250 -62 121 -28 241 -57 266 -65 26 -8 53 -15 61 -15 8 0 44 -9 79
-19 35 -11 80 -22 100 -25 20 -4 48 -17 63 -31 l26 -24 0 -1495 c0 -1094 3
-1502 11 -1520 11 -23 234 -176 694 -475 72 -46 167 -108 211 -138 85 -55 108
-63 117 -38 4 8 9 1019 13 2247 7 2227 7 2233 -13 2251 -11 10 -74 31 -139 48
-66 17 -153 39 -194 50 -41 11 -97 25 -125 30 -27 6 -67 16 -88 24 -20 8 -53
15 -73 15 -19 0 -49 7 -67 16 -17 9 -56 20 -87 24 -30 4 -68 12 -85 18 -16 6
-100 27 -185 47 -85 20 -200 48 -255 62 -55 14 -119 29 -143 34 -23 5 -50 13
-60 18 -9 5 -39 12 -67 16 -27 4 -66 13 -85 20 -19 8 -59 16 -89 20 -30 3 -67
13 -82 21 -15 7 -41 14 -58 14 -16 0 -42 5 -58 11 -36 14 -156 45 -208 53 -33
6 -46 3 -72 -16z"/>
<path d="M8840 6803 c-47 -13 -110 -28 -140 -34 -30 -5 -72 -16 -93 -24 -20
-8 -53 -15 -73 -15 -19 0 -48 -7 -63 -15 -16 -8 -48 -17 -72 -20 -24 -3 -66
-12 -94 -20 -75 -21 -192 -51 -265 -69 -36 -8 -112 -27 -170 -42 -58 -15 -129
-30 -158 -35 -29 -4 -59 -12 -66 -18 -7 -6 -39 -13 -72 -17 -32 -4 -65 -11
-72 -17 -7 -6 -43 -16 -80 -23 -164 -32 -582 -142 -610 -160 l-23 -15 3 -2233
c2 -1885 5 -2236 17 -2250 13 -15 17 -14 60 10 25 15 66 42 90 60 24 19 47 34
51 34 8 0 691 450 758 500 24 17 47 43 53 56 5 16 9 602 9 1520 l0 1494 38 24
c20 14 60 29 87 35 50 10 124 29 220 56 28 7 111 27 185 44 123 28 167 39 285
69 44 12 101 26 168 43 23 5 62 14 87 19 25 5 68 16 95 24 28 8 77 22 110 30
33 8 143 36 245 62 102 26 208 50 235 53 28 4 61 13 74 20 13 7 47 17 75 21
74 12 126 33 126 50 0 13 -149 160 -360 355 -36 33 -141 132 -235 220 -258
243 -248 235 -298 234 -23 -1 -80 -12 -127 -26z"/>
</g>
</svg>
