<?xml version="1.0" standalone="no"?>
<!DOCTYPE svg PUBLIC "-//W3C//DTD SVG 20010904//EN"
 "http://www.w3.org/TR/2001/REC-SVG-20010904/DTD/svg10.dtd">
<svg version="1.0" xmlns="http://www.w3.org/2000/svg"
 width="622.000000pt" height="143.000000pt" viewBox="0 0 622.000000 143.000000"
 preserveAspectRatio="xMidYMid meet">

<g transform="translate(0.000000,143.000000) scale(0.100000,-0.100000)"
fill="#000000" stroke="none">
<path d="M113 1326 c-48 -46 -86 -86 -83 -89 3 -2 154 -41 335 -86 182 -45
347 -86 368 -92 l37 -10 0 -318 0 -318 101 -67 c55 -37 102 -66 104 -64 1 2 5
211 9 465 l7 463 -23 10 c-13 5 -183 48 -378 95 -195 47 -362 88 -372 91 -11
3 -45 -23 -105 -80z"/>
<path d="M1615 1355 c-115 -29 -280 -69 -365 -89 -85 -20 -163 -39 -172 -42
-17 -5 -18 -36 -18 -475 0 -258 2 -469 5 -469 3 0 50 30 104 66 l99 66 7 120
c4 66 4 207 0 312 -6 156 -4 194 6 202 8 6 174 50 369 99 195 48 357 89 359
92 7 6 -162 173 -174 172 -5 0 -104 -25 -220 -54z"/>
<path d="M125 985 c-64 -59 -86 -85 -75 -89 8 -3 103 -27 210 -54 l195 -48 5
-320 5 -319 100 -67 c54 -38 103 -68 107 -68 4 0 8 211 8 469 0 439 -1 470
-17 475 -42 12 -435 106 -441 106 -4 -1 -47 -39 -97 -85z"/>
<path d="M1775 1058 c-22 -5 -105 -25 -185 -44 -80 -19 -162 -39 -182 -45
l-38 -10 0 -465 c0 -408 2 -465 15 -460 8 3 55 33 105 66 l90 61 0 315 0 314
23 9 c12 5 103 27 202 50 99 24 184 46 188 50 7 7 -153 164 -171 167 -4 1 -25
-3 -47 -8z"/>
</g>
</svg>
